<svg xmlns="http://www.w3.org/2000/svg" width="45" height="45" viewBox="0 0 45 45"><title>HARDWARE</title><rect x="15" y="15" width="5" height="15"/><rect x="25" y="15" width="5" height="15"/><rect x="20" y="10" width="5" height="15" transform="translate(40 -5) rotate(90)"/><rect x="20" y="20" width="5" height="15" transform="translate(50 5) rotate(90)"/><rect x="5" y="15" width="5" height="5"/><rect y="20" width="5" height="5"/><rect x="15" y="35" width="5" height="5"/><rect x="20" y="40" width="5" height="5"/><rect x="35" y="25" width="5" height="5"/><rect x="40" y="20" width="5" height="5"/><rect x="25" y="5" width="5" height="5"/><rect x="20" width="5" height="5"/><rect x="30" y="10" width="15" height="5"/><rect y="30" width="15" height="5"/><rect x="5" y="5" width="15" height="5" transform="translate(5 20) rotate(-90)"/><rect x="25" y="35" width="15" height="5" transform="translate(-5 70) rotate(-90)"/><rect width="5" height="10"/><rect x="35" width="10" height="5"/><rect x="40" y="35" width="5" height="10"/><rect y="40" width="10" height="5"/></svg>