<svg xmlns="http://www.w3.org/2000/svg" width="55" height="45" viewBox="0 0 55 45"><title>REVERSING</title><rect y="20" width="5" height="5"/><rect x="5" y="15" width="5" height="5"/><rect x="10" y="10" width="5" height="5"/><rect x="15" y="5" width="5" height="5"/><rect x="20" width="5" height="5"/><rect x="20" y="15" width="5" height="5"/><rect x="25" y="10" width="5" height="5"/><rect x="30" y="5" width="5" height="5"/><rect x="35" width="5" height="5"/><rect x="35" y="15" width="5" height="5"/><rect x="40" y="10" width="5" height="5"/><rect x="45" y="5" width="5" height="5"/><rect x="50" width="5" height="5"/><rect x="5" y="25" width="5" height="5"/><rect x="10" y="30" width="5" height="5"/><rect x="15" y="35" width="5" height="5"/><rect x="20" y="40" width="5" height="5"/><rect x="15" y="20" width="5" height="5"/><rect x="20" y="25" width="5" height="5"/><rect x="25" y="30" width="5" height="5"/><rect x="30" y="35" width="5" height="5"/><rect x="35" y="40" width="5" height="5"/><rect x="30" y="20" width="5" height="5"/><rect x="35" y="25" width="5" height="5"/><rect x="40" y="30" width="5" height="5"/><rect x="45" y="35" width="5" height="5"/><rect x="50" y="40" width="5" height="5"/></svg>